<?xml version="1.0" encoding="UTF-8" standalone="no"?>
<!-- Generator: Adobe Illustrator 22.1.0, SVG Export Plug-In . SVG Version: 6.00 Build 0)  -->

<svg
   version="1.1"
   id="Layer_1"
   x="0px"
   y="0px"
   viewBox="0 0 512 512"
   style="enable-background:new 0 0 512 512;"
   xml:space="preserve"
   sodipodi:docname="facebook-square.svg"
   inkscape:version="1.1.1 (3bf5ae0d25, 2021-09-20)"
   xmlns:inkscape="http://www.inkscape.org/namespaces/inkscape"
   xmlns:sodipodi="http://sodipodi.sourceforge.net/DTD/sodipodi-0.dtd"
   xmlns="http://www.w3.org/2000/svg"
   xmlns:svg="http://www.w3.org/2000/svg"><defs
   id="defs9" /><sodipodi:namedview
   id="namedview7"
   pagecolor="#ffffff"
   bordercolor="#666666"
   borderopacity="1.0"
   inkscape:pageshadow="2"
   inkscape:pageopacity="0.0"
   inkscape:pagecheckerboard="0"
   showgrid="false"
   showguides="false"
   inkscape:zoom="0.94188833"
   inkscape:cx="358.32273"
   inkscape:cy="222.95637"
   inkscape:window-width="1920"
   inkscape:window-height="1018"
   inkscape:window-x="0"
   inkscape:window-y="0"
   inkscape:window-maximized="1"
   inkscape:current-layer="Layer_1" />
<rect
   style="fill:#ffffff;stroke-width:0.853546"
   id="rect844"
   width="256.63101"
   height="434.65048"
   x="131.05164"
   y="77.286537" /><g
   id="g4"
   style="fill:#1b74e4;fill-opacity:1"
   transform="matrix(1.1374519,0,0,1.137621,-35.247813,-35.235459)">
	<path
   d="M 432.8,31 H 79.2 C 52.6,31 31,52.6 31,79.2 V 432.8 C 31,459.4 52.6,481 79.2,481 H 217.1 V 328 h -63.3 v -72 h 63.3 v -54.9 c 0,-62.4 37.2,-96.9 94.1,-96.9 27.3,0 55.8,4.9 55.8,4.9 v 61.3 h -31.4 c -30.9,0 -40.6,19.2 -40.6,38.9 V 256 h 69 l -11,72 h -58 v 153 h 137.9 c 26.6,0 48.2,-21.6 48.2,-48.2 V 79.2 C 481,52.6 459.4,31 432.8,31 Z"
   id="path2"
   style="fill:#1b74e4;fill-opacity:1" />
</g>
</svg>
