<?xml version="1.0" encoding="UTF-8" standalone="no"?>
<!-- Created with Inkscape (http://www.inkscape.org/) -->

<svg
   width="182.98422mm"
   height="95.978271mm"
   viewBox="0 0 182.98422 95.978271"
   version="1.1"
   id="svg1591"
   inkscape:version="1.1.1 (3bf5ae0d25, 2021-09-20)"
   sodipodi:docname="imagotipo_sandratorrez.svg"
   xmlns:inkscape="http://www.inkscape.org/namespaces/inkscape"
   xmlns:sodipodi="http://sodipodi.sourceforge.net/DTD/sodipodi-0.dtd"
   xmlns="http://www.w3.org/2000/svg"
   xmlns:svg="http://www.w3.org/2000/svg">
  <sodipodi:namedview
     id="namedview1593"
     pagecolor="#ffffff"
     bordercolor="#666666"
     borderopacity="1.0"
     inkscape:pageshadow="2"
     inkscape:pageopacity="0.0"
     inkscape:pagecheckerboard="0"
     inkscape:document-units="mm"
     showgrid="false"
     inkscape:zoom="0.60756173"
     inkscape:cx="344.82093"
     inkscape:cy="240.3048"
     inkscape:window-width="1920"
     inkscape:window-height="1018"
     inkscape:window-x="0"
     inkscape:window-y="0"
     inkscape:window-maximized="1"
     inkscape:current-layer="layer1" />
  <defs
     id="defs1588" />
  <g
     inkscape:label="Capa 1"
     inkscape:groupmode="layer"
     id="layer1"
     transform="translate(-13.813336,-85.084518)">
    <g
       id="g1586"
       transform="matrix(0.92048267,0,0,-0.92048267,-88.098363,292.5383)">
      <g
         id="g294"
         transform="translate(224.8828,136.6823)">
        <path
           d="M 0,0 V -15.156 H -1.879 V 0 H -5.992 V 1.778 H 4.113 V 0 Z"
           style="fill:#bf9cce;fill-opacity:1;fill-rule:nonzero;stroke:none"
           id="path296" />
      </g>
      <g
         id="g298"
         transform="translate(233.6938,129.9801)">
        <path
           d="m 0,0 c 0,-3.885 3.072,-6.981 6.88,-6.981 3.808,0 6.88,3.096 6.88,6.981 0,3.885 -3.072,6.981 -6.88,6.981 C 3.072,6.981 0,3.885 0,0 m -1.93,0 c 0,5.052 3.935,8.76 8.81,8.76 4.874,0 8.81,-3.708 8.81,-8.76 0,-5.027 -3.91,-8.759 -8.81,-8.759 -4.9,0 -8.81,3.732 -8.81,8.759"
           style="fill:#bf9cce;fill-opacity:1;fill-rule:nonzero;stroke:none"
           id="path300" />
      </g>
      <g
         id="g302"
         transform="translate(256.7476,130.6149)">
        <path
           d="M 0,0 H 1.193 C 3.529,0 4.925,1.117 4.925,3.098 4.925,4.037 4.646,4.976 3.58,5.586 2.818,6.018 1.955,6.067 1.142,6.067 H 0 Z M 0.838,7.846 C 1.98,7.846 3.681,7.769 4.951,6.906 5.94,6.245 6.804,4.95 6.804,3.147 6.804,0.559 5.103,-1.346 2.539,-1.523 L 7.921,-9.089 H 5.636 L 0.482,-1.676 H 0 V -9.089 H -1.879 V 7.846 Z"
           style="fill:#bf9cce;fill-opacity:1;fill-rule:nonzero;stroke:none"
           id="path304" />
      </g>
      <g
         id="g306"
         transform="translate(271.5239,130.6149)">
        <path
           d="M 0,0 H 1.193 C 3.529,0 4.925,1.117 4.925,3.098 4.925,4.037 4.646,4.976 3.58,5.586 2.818,6.018 1.955,6.067 1.142,6.067 H 0 Z m 0.838,7.846 c 1.142,0 2.843,-0.077 4.113,-0.94 0.99,-0.661 1.853,-1.956 1.853,-3.759 0,-2.588 -1.701,-4.493 -4.265,-4.67 L 7.921,-9.089 H 5.637 L 0.482,-1.676 H 0 V -9.089 H -1.878 V 7.846 Z"
           style="fill:#bf9cce;fill-opacity:1;fill-rule:nonzero;stroke:none"
           id="path308" />
      </g>
      <g
         id="g310"
         transform="translate(293.2065,136.6823)">
        <path
           d="m 0,0 h -6.905 v -5.026 h 6.702 V -6.804 H -6.905 V -13.38 H 0 v -1.776 H -8.784 V 1.778 H 0 Z"
           style="fill:#bf9cce;fill-opacity:1;fill-rule:nonzero;stroke:none"
           id="path312" />
      </g>
      <g
         id="g314"
         transform="translate(300.2651,123.3024)">
        <path
           d="M 0,0 H 8.988 V -1.776 H -3.148 L 6.094,13.38 h -8.049 v 1.778 H 9.242 Z"
           style="fill:#bf9cce;fill-opacity:1;fill-rule:nonzero;stroke:none"
           id="path316" />
      </g>
      <g
         id="g318"
         transform="translate(118.6475,134.818)">
        <path
           d="m 0,0 c -0.214,0.428 -0.57,0.902 -0.927,1.187 -0.308,0.238 -0.878,0.546 -1.781,0.546 -1.567,0 -2.66,-0.972 -2.66,-2.445 0,-0.618 0.167,-0.974 0.594,-1.378 0.475,-0.474 1.068,-0.736 1.662,-0.997 l 1.52,-0.665 c 0.926,-0.403 1.781,-0.831 2.446,-1.496 0.808,-0.808 1.141,-1.734 1.141,-2.874 0,-2.921 -2.162,-4.868 -5.012,-4.868 -1.044,0 -2.351,0.214 -3.443,1.282 -0.783,0.76 -1.259,1.853 -1.472,2.803 l 1.709,0.474 c 0.119,-0.831 0.499,-1.543 0.951,-2.018 0.689,-0.689 1.472,-0.879 2.279,-0.879 2.161,0 3.182,1.544 3.182,3.136 0,0.712 -0.213,1.329 -0.783,1.851 -0.451,0.428 -1.069,0.713 -1.9,1.093 l -1.425,0.665 c -0.618,0.284 -1.401,0.617 -2.114,1.306 -0.688,0.665 -1.092,1.401 -1.092,2.589 0,2.446 1.876,4.084 4.441,4.084 0.974,0 1.757,-0.19 2.541,-0.712 C 0.499,2.257 1.044,1.615 1.401,0.927 Z"
           style="fill:#bf9cce;fill-opacity:1;fill-rule:nonzero;stroke:none"
           id="path320" />
      </g>
      <g
         id="g322"
         transform="translate(143.3428,137.5065)">
        <path
           d="M 0,0 V -16.401 L 12.398,-3.54 v -12.2 h 1.764 V 0.708 L 1.764,-12.153 V 0 Z"
           style="fill:#bf9cce;fill-opacity:1;fill-rule:nonzero;stroke:none"
           id="path324" />
      </g>
      <g
         id="g326"
         transform="translate(164.2939,123.775)">
        <path
           d="m 0,0 h 1.544 c 1.258,0 2.992,0.143 4.536,1.425 1.187,0.998 2.137,2.565 2.137,4.821 0,3.8 -2.66,6.27 -6.673,6.27 H 0 Z m -1.757,14.179 h 3.23 c 1.59,0 3.847,-0.167 5.841,-1.853 1.449,-1.212 2.707,-3.23 2.707,-6.08 C 10.021,2.921 8.383,1.14 7.243,0.166 5.794,-1.068 4.274,-1.662 1.449,-1.662 h -3.206 z"
           style="fill:#bf9cce;fill-opacity:1;fill-rule:nonzero;stroke:none"
           id="path328" />
      </g>
      <g
         id="g330"
         transform="translate(181.2041,130.6149)">
        <path
           d="M 0,0 H 1.116 C 3.301,0 4.607,1.045 4.607,2.897 4.607,3.776 4.346,4.654 3.348,5.225 2.636,5.628 1.829,5.676 1.068,5.676 H 0 Z M 0.784,7.339 C 1.853,7.339 3.443,7.267 4.631,6.46 5.557,5.842 6.365,4.631 6.365,2.944 6.365,0.522 4.773,-1.259 2.375,-1.425 L 7.409,-8.502 H 5.272 L 0.451,-1.567 H 0 V -8.502 H -1.757 V 7.339 Z"
           style="fill:#bf9cce;fill-opacity:1;fill-rule:nonzero;stroke:none"
           id="path332" />
      </g>
      <g
         id="g334"
         transform="translate(203.8604,122.1129)">
        <path
           d="M 0,0 H 1.947 L -5.153,16.601 -12.444,0 h 1.947 l 1.479,3.476 H -9.03 l 3.839,8.992 3.772,-8.992 h -0.023 z"
           style="fill:#bf9cce;fill-opacity:1;fill-rule:nonzero;stroke:none"
           id="path336" />
      </g>
      <g
         id="g338"
         transform="translate(136.3638,122.1129)">
        <path
           d="M 0,0 H 1.947 L -5.154,16.601 -12.444,0 h 1.947 l 1.327,3.118 h -0.011 l 3.992,9.35 3.921,-9.35 h -0.026 z"
           style="fill:#bf9cce;fill-opacity:1;fill-rule:nonzero;stroke:none"
           id="path340" />
      </g>
      <g
         id="g342"
         transform="translate(172.2422,195.7809)">
        <path
           d="M 0,0 0.385,1.135 5.262,1.475 5.272,1.506 1.601,4.721 1.985,5.855 7.627,3.946 7.37,3.185 2.731,4.754 2.726,4.738 6.721,1.272 6.549,0.765 1.268,0.438 1.262,0.422 5.901,-1.147 5.643,-1.909 Z"
           style="fill:#bf9cce;fill-opacity:1;fill-rule:nonzero;stroke:none"
           id="path344" />
      </g>
      <g
         id="g346"
         transform="translate(181.4014,206.5621)">
        <path
           d="m 0,0 -2.893,0.579 -0.008,-0.015 1.667,-2.44 z m -3.948,0.871 0.401,0.609 6.371,-1.152 -0.516,-0.783 -1.557,0.311 -1.552,-2.358 0.908,-1.3 -0.516,-0.783 z"
           style="fill:#bf9cce;fill-opacity:1;fill-rule:nonzero;stroke:none"
           id="path348" />
      </g>
      <g
         id="g350"
         transform="translate(181.8496,213.1178)">
        <path
           d="M 0,0 0.58,0.558 2.363,-1.3 2.411,-1.254 2.52,2.421 3.33,3.199 3.168,-0.771 7.593,-0.965 6.747,-1.777 2.69,-1.544 2.642,-1.591 4.705,-3.738 4.125,-4.297 Z"
           style="fill:#bf9cce;fill-opacity:1;fill-rule:nonzero;stroke:none"
           id="path352" />
      </g>
      <g
         id="g354"
         transform="translate(188.3496,218.651)">
        <path
           d="M 0,0 3.263,2.005 3.659,1.359 1.082,-0.224 2.01,-1.736 4.409,-0.264 4.805,-0.909 2.406,-2.383 3.405,-4.01 6.11,-2.348 6.506,-2.993 3.115,-5.076 Z"
           style="fill:#bf9cce;fill-opacity:1;fill-rule:nonzero;stroke:none"
           id="path356" />
      </g>
      <g
         id="g358"
         transform="translate(201.1147,224.2867)">
        <path
           d="m 0,0 0.715,-3.582 c 0.036,-0.181 0.098,-0.364 0.186,-0.551 0.089,-0.184 0.207,-0.348 0.354,-0.49 0.149,-0.143 0.326,-0.247 0.533,-0.314 0.207,-0.068 0.447,-0.074 0.721,-0.019 0.274,0.056 0.493,0.153 0.659,0.296 0.165,0.141 0.289,0.306 0.371,0.494 0.082,0.188 0.128,0.386 0.138,0.591 0.011,0.204 -0.003,0.398 -0.038,0.58 L 2.923,0.587 3.712,0.744 4.451,-2.961 C 4.52,-3.302 4.524,-3.623 4.464,-3.924 4.405,-4.226 4.294,-4.497 4.132,-4.741 3.97,-4.985 3.763,-5.19 3.511,-5.355 3.26,-5.521 2.975,-5.635 2.658,-5.698 2.34,-5.762 2.034,-5.767 1.737,-5.711 c -0.295,0.055 -0.565,0.164 -0.808,0.327 -0.243,0.163 -0.45,0.371 -0.62,0.627 -0.17,0.254 -0.29,0.552 -0.358,0.894 l -0.74,3.705 z"
           style="fill:#bf9cce;fill-opacity:1;fill-rule:nonzero;stroke:none"
           id="path360" />
      </g>
      <g
         id="g362"
         transform="translate(210.0996,222.733)">
        <path
           d="M 0,0 1.055,-0.021 C 1.211,-0.023 1.366,-0.014 1.52,0.009 1.674,0.031 1.812,0.074 1.934,0.14 2.055,0.204 2.153,0.299 2.228,0.425 2.303,0.549 2.343,0.713 2.347,0.914 2.351,1.116 2.318,1.281 2.248,1.409 2.178,1.537 2.084,1.636 1.965,1.705 1.847,1.774 1.71,1.823 1.558,1.852 1.405,1.88 1.25,1.896 1.094,1.898 L 0.039,1.919 Z M -0.75,2.642 1.334,2.601 C 1.714,2.594 2.025,2.536 2.269,2.427 2.512,2.318 2.704,2.184 2.843,2.021 2.982,1.857 3.077,1.676 3.129,1.476 3.181,1.276 3.205,1.083 3.201,0.898 3.197,0.713 3.166,0.521 3.105,0.323 3.045,0.125 2.943,-0.053 2.797,-0.21 2.652,-0.367 2.455,-0.495 2.208,-0.594 1.96,-0.693 1.646,-0.739 1.267,-0.731 l -1.281,0.024 -0.054,-2.625 -0.804,0.015 z"
           style="fill:#bf9cce;fill-opacity:1;fill-rule:nonzero;stroke:none"
           id="path364" />
      </g>
      <g
         id="g366"
         transform="translate(173.8511,190.9108)">
        <path
           d="m 0,0 v 0 c -0.304,-2.695 -0.454,-6.692 0.494,-11.384 0.441,-2.184 1.34,-5.611 3.297,-9.434 0.597,-1.167 3.394,-6.477 8.617,-11.004 7.228,-6.265 18.515,-10.523 30.493,-8.313 11.014,2.031 17.768,8.637 19.876,10.876 6.331,6.723 8.393,14.037 9.089,17.138 0.697,3.109 1.961,10.633 -0.914,19.465 -0.375,1.152 -3.72,11.006 -12.604,17.792 -3.958,3.023 -7.98,4.646 -8.696,4.929 -2.379,0.943 -4.501,1.492 -6.142,1.824"
           style="fill:none;stroke:#bf9cce;stroke-width:1.865;stroke-linecap:butt;stroke-linejoin:miter;stroke-miterlimit:10;stroke-dasharray:none;stroke-opacity:1"
           id="path368" />
      </g>
      <g
         id="g370"
         transform="translate(193.4868,175.0885)">
        <path
           d="M 0,0 C 0.247,0.454 0.329,0.991 0.247,1.61 0.205,1.734 0.165,1.858 0.124,1.982 0.082,2.106 -0.021,2.208 -0.184,2.291 -0.349,2.374 -0.472,2.354 -0.554,2.229 -0.637,2.106 -0.719,1.982 -0.801,1.858 -1.17,1.279 -1.54,0.69 -1.91,0.094 c -0.369,-0.6 -0.719,-1.189 -1.048,-1.766 -0.205,-0.289 -0.379,-0.588 -0.523,-0.898 -0.144,-0.309 -0.196,-0.671 -0.154,-1.083 0.606,0.402 1.284,0.92 1.972,1.579 0.417,0.4 0.779,0.797 1.092,1.173 0.19,0.3 0.381,0.6 0.571,0.901 m 26.557,27.187 c 0.146,-0.207 0.221,-0.351 0.185,-0.496 -0.042,-0.166 -0.185,-0.248 -0.432,-0.248 -1.972,0 -3.903,-0.196 -5.792,-0.588 -2.507,-0.52 -4.706,-0.823 -5.73,-1.145 -0.342,-0.107 -2.362,-0.754 -2.362,-0.754 0,0 -0.003,-0.01 -0.003,-0.01 0,0 -3.634,-11.43 -5.503,-19.839 C 6.827,3.685 6.617,2.701 6.499,2.142 6.244,0.937 6.17,0.754 6.129,0.291 6.078,-0.284 6.02,-1.031 6.316,-1.871 6.485,-2.352 6.77,-3.158 7.345,-3.275 c 0.291,-0.06 0.605,0.068 1.504,0.893 0.995,0.914 1.678,1.736 2.089,2.239 0.844,1.033 1.266,1.548 1.735,2.207 1.032,1.449 1.548,2.172 1.713,2.473 0,0.001 0.207,0.284 0.621,0.851 0.189,0.258 0.353,0.477 0.579,0.481 0.129,0.002 0.282,-0.066 0.316,-0.082 C 15.973,5.756 16.096,5.7 16.166,5.607 16.295,5.438 16.222,5.176 16.167,5.009 15.962,4.38 15.632,3.899 15.569,3.807 15.285,3.391 15.062,2.937 14.802,2.505 14.564,2.11 14.23,1.546 13.839,0.844 13.567,0.35 13.307,-0.063 13.088,-0.39 12.87,-0.716 12.695,-0.95 12.412,-1.331 12.205,-1.61 11.917,-1.998 11.546,-2.453 11.111,-2.989 10.873,-3.282 10.585,-3.569 10.158,-3.995 9.521,-4.629 8.566,-4.929 8.289,-5.017 7.143,-5.377 6.099,-4.87 4.747,-4.214 4.412,-2.515 4.21,-1.486 3.838,0.402 4.151,1.941 4.429,3.188 c 1.346,6.055 3.058,10.705 3.344,11.473 0.534,1.435 0.725,1.86 1.419,3.766 0.884,2.426 1.543,4.391 1.935,5.588 -0.381,-0.605 -0.56,-0.947 -0.56,-0.947 C 10.419,22.786 10.334,22.569 10.291,22.48 9.714,21.324 9.036,19.962 8.257,18.393 7.476,16.823 6.654,15.224 5.792,13.594 4.929,11.962 4.067,10.383 3.205,8.856 2.342,7.328 1.561,6.027 0.863,4.955 L 0.494,4.211 C 0.205,3.798 0.267,3.406 0.678,3.035 1.5,2.25 1.889,1.445 1.849,0.619 1.808,-0.207 1.561,-0.971 1.109,-1.672 0.617,-2.415 0.051,-3.087 -0.585,-3.685 -1.222,-4.284 -1.91,-4.83 -2.649,-5.326 c -0.206,-0.165 -0.432,-0.3 -0.678,-0.402 -0.246,-0.104 -0.514,-0.115 -0.8,-0.031 -1.028,0.206 -1.5,0.825 -1.418,1.858 0.04,0.412 0.123,0.805 0.247,1.176 0.123,0.371 0.286,0.722 0.492,1.053 0.328,0.66 0.679,1.301 1.048,1.92 0.37,0.619 0.739,1.238 1.109,1.858 0.328,0.619 0.462,1 0.4,1.145 C -2.31,3.396 -2.67,3.55 -3.327,3.716 l -2.957,0.743 c -0.986,0.248 -1.89,0.66 -2.711,1.238 -1.398,0.95 -1.644,2.126 -0.74,3.531 0.504,0.782 0.992,1.279 1.726,1.888 0.993,0.825 1.837,1.255 2.486,1.513 1.107,0.44 1.596,0.361 1.905,0.207 0.102,-0.051 0.485,-0.243 0.541,-0.595 C -3.054,12.094 -3.082,11.876 -3.222,11.76 -3.326,11.673 -3.454,11.674 -3.515,11.672 -3.69,11.665 -3.959,11.534 -4.498,11.271 -5.677,10.695 -6.285,10.429 -6.917,9.843 -7.508,9.296 -7.996,8.637 -8.379,7.865 -8.79,7.039 -8.523,6.441 -7.578,6.069 -6.88,5.78 -6.183,5.563 -5.483,5.419 c 0.697,-0.146 1.396,-0.32 2.095,-0.526 0.574,-0.166 0.995,-0.29 1.263,-0.372 0.266,-0.084 0.482,-0.093 0.647,-0.031 0.163,0.062 0.308,0.217 0.431,0.465 0.123,0.247 0.328,0.598 0.616,1.053 0.616,0.948 1.304,2.114 2.064,3.499 0.76,1.382 1.52,2.817 2.28,4.304 1.195,2.337 1.136,2.256 2.218,4.335 0.88,1.689 1.997,3.798 1.997,3.798 0.162,0.342 0.246,0.52 0.246,0.52 0,0 0.093,0.178 0.122,0.235 0.05,0.1 0.114,0.248 0.167,0.454 C 8.521,23.129 8.33,23.094 8.105,23.047 7.96,23.017 7.681,22.958 7.353,22.871 7.037,22.787 6.841,22.721 6.647,22.66 6.322,22.558 6.098,22.5 5.341,22.312 3.792,21.93 2.225,21.551 1.972,21.489 1.664,21.428 1.356,21.365 1.048,21.304 0.801,21.262 0.555,21.251 0.309,21.272 c -0.247,0.021 -0.412,0.176 -0.493,0.465 -0.083,0.33 0,0.505 0.246,0.527 0.247,0.02 0.472,0.071 0.678,0.154 1.273,0.412 2.535,0.814 3.789,1.208 1.253,0.392 2.535,0.774 3.851,1.145 0.863,0.249 1.479,0.785 1.849,1.611 0.328,0.783 0.656,1.557 0.985,2.322 0.329,0.764 0.657,1.537 0.986,2.322 l 0.37,0.744 c 0.082,0.182 0.214,0.459 0.391,0.786 0.467,0.859 0.708,1.291 1.126,1.404 0.297,0.08 0.686,0.057 0.809,-0.144 0.087,-0.141 0.016,-0.327 -0.036,-0.471 -0.199,-0.551 -0.289,-1.138 -0.483,-1.691 -0.238,-0.678 -0.166,-0.635 -0.386,-1.285 0,0 -1.16,-3.433 -1.182,-3.988 -10e-4,-0.015 -0.003,-0.057 0.022,-0.095 0.063,-0.096 0.24,-0.084 0.315,-0.077 0.562,0.049 2.94,0.418 2.947,0.42 0.835,0.173 1.687,0.338 2.555,0.494 1.784,0.322 3.519,0.589 5.198,0.807 0,0 1.571,0.369 2.27,-0.214 0.162,-0.135 0.391,-0.46 0.441,-0.529"
           style="fill:#bf9cce;fill-opacity:1;fill-rule:nonzero;stroke:none"
           id="path372" />
      </g>
      <g
         id="g374"
         transform="translate(239.376,181.901)">
        <path
           d="M 0,0 C 0.287,0.371 0.564,0.526 0.832,0.464 1.099,0.402 1.068,0.082 0.739,-0.495 0.164,-1.445 -0.462,-2.322 -1.14,-3.128 c -0.677,-0.805 -1.448,-1.559 -2.311,-2.261 -0.945,-0.742 -1.838,-1.031 -2.68,-0.866 -0.842,0.164 -1.551,0.784 -2.126,1.858 -0.328,0.578 -0.576,1.166 -0.739,1.764 -0.165,0.599 -0.35,1.208 -0.555,1.828 -0.122,0.412 -0.236,0.815 -0.338,1.207 -0.103,0.392 -0.257,0.753 -0.463,1.084 -0.082,0.082 -0.206,0.021 -0.369,-0.186 -0.452,-0.66 -0.842,-1.331 -1.171,-2.012 -0.329,-0.682 -0.677,-1.374 -1.047,-2.075 -0.453,-0.784 -0.874,-1.569 -1.264,-2.354 -0.39,-0.784 -0.852,-1.527 -1.385,-2.229 -0.453,-0.619 -1.028,-0.878 -1.726,-0.774 -0.699,0.102 -1.212,0.505 -1.54,1.207 -0.165,0.331 -0.288,0.723 -0.37,1.177 -0.165,0.701 -0.277,1.414 -0.338,2.137 -0.063,0.722 -0.135,1.434 -0.216,2.137 -0.042,0.495 -0.083,0.991 -0.124,1.486 -0.041,0.495 -0.103,0.991 -0.185,1.486 -0.04,0.124 -0.082,0.248 -0.123,0.371 -0.041,0.124 -0.144,0.206 -0.308,0.248 -0.165,0.083 -0.299,0.063 -0.4,-0.061 -0.104,-0.124 -0.196,-0.228 -0.278,-0.31 -0.616,-0.703 -1.161,-1.424 -1.633,-2.168 -0.472,-0.743 -0.915,-1.528 -1.324,-2.353 -0.453,-0.908 -0.884,-1.817 -1.294,-2.725 -0.411,-0.908 -0.843,-1.817 -1.294,-2.724 -0.164,-0.289 -0.319,-0.569 -0.462,-0.836 -0.145,-0.27 -0.319,-0.548 -0.524,-0.836 -0.411,-0.619 -0.924,-0.867 -1.54,-0.743 -0.822,0.124 -1.315,0.536 -1.479,1.237 -0.206,0.95 -0.308,1.837 -0.308,2.664 0,1.526 0.071,3.044 0.215,4.552 0.144,1.507 0.278,3.023 0.401,4.552 0.082,0.619 0.154,1.238 0.216,1.857 0.061,0.619 0.133,1.238 0.215,1.858 0,0.247 0.021,0.434 0.062,0.557 0.082,0.206 0.144,0.443 0.185,0.712 0.041,0.268 0.246,0.382 0.616,0.341 0.328,-0.041 0.513,-0.186 0.555,-0.434 0.04,-0.247 0.061,-0.495 0.061,-0.742 V 3.809 c 0,-0.889 -0.041,-1.787 -0.123,-2.695 -0.082,-1.321 -0.144,-2.653 -0.185,-3.994 -0.041,-1.343 -0.102,-2.673 -0.185,-3.994 0,-0.166 0.021,-0.31 0.062,-0.434 0.041,-0.083 0.102,-0.124 0.185,-0.124 0.081,0 0.143,0.041 0.185,0.124 0.246,0.496 0.493,0.98 0.739,1.455 0.246,0.475 0.493,0.96 0.74,1.456 0.574,1.156 1.17,2.281 1.786,3.376 0.616,1.092 1.315,2.156 2.095,3.189 0.123,0.164 0.246,0.318 0.37,0.464 0.123,0.144 0.266,0.299 0.431,0.465 0.574,0.577 1.191,0.825 1.848,0.743 0.657,-0.084 1.212,-0.476 1.664,-1.177 0.205,-0.331 0.339,-0.682 0.401,-1.053 0.061,-0.372 0.133,-0.743 0.215,-1.115 l 0.555,-5.201 c 0.04,-0.248 0.061,-0.496 0.061,-0.744 0,-0.247 0.102,-0.475 0.309,-0.681 0.246,0 0.42,0.082 0.523,0.248 0.102,0.164 0.194,0.33 0.278,0.494 0.574,0.951 1.118,1.89 1.632,2.819 0.514,0.928 1.057,1.867 1.633,2.818 0.205,0.329 0.401,0.64 0.585,0.929 0.185,0.288 0.38,0.597 0.586,0.928 0.369,0.455 0.831,0.712 1.387,0.775 0.554,0.061 1.056,-0.135 1.508,-0.589 0.37,-0.371 0.658,-0.908 0.863,-1.609 0.247,-0.703 0.483,-1.385 0.709,-2.044 0.225,-0.661 0.462,-1.342 0.709,-2.044 0.163,-0.579 0.328,-1.012 0.492,-1.3 0.164,-0.29 0.348,-0.465 0.555,-0.527 0.205,-0.062 0.462,-0.011 0.77,0.155 0.309,0.164 0.687,0.433 1.14,0.805 0.739,0.578 1.417,1.186 2.033,1.827 0.617,0.639 1.191,1.331 1.725,2.075 z"
           style="fill:#bf9cce;fill-opacity:1;fill-rule:nonzero;stroke:none"
           id="path376" />
      </g>
    </g>
  </g>
</svg>
