<?xml version="1.0" encoding="UTF-8" standalone="no"?>
<!-- Created with Inkscape (http://www.inkscape.org/) -->

<svg
   width="186.33711mm"
   height="16.529776mm"
   viewBox="0 0 186.33711 16.529776"
   version="1.1"
   id="svg152147"
   inkscape:version="1.1.1 (3bf5ae0d25, 2021-09-20)"
   sodipodi:docname="logotipo_sandratorrez.svg"
   xmlns:inkscape="http://www.inkscape.org/namespaces/inkscape"
   xmlns:sodipodi="http://sodipodi.sourceforge.net/DTD/sodipodi-0.dtd"
   xmlns="http://www.w3.org/2000/svg"
   xmlns:svg="http://www.w3.org/2000/svg">
  <sodipodi:namedview
     id="namedview152149"
     pagecolor="#ffffff"
     bordercolor="#666666"
     borderopacity="1.0"
     inkscape:pageshadow="2"
     inkscape:pageopacity="0.0"
     inkscape:pagecheckerboard="0"
     inkscape:document-units="mm"
     showgrid="false"
     inkscape:zoom="0.60756173"
     inkscape:cx="343.17501"
     inkscape:cy="103.69317"
     inkscape:window-width="1920"
     inkscape:window-height="1018"
     inkscape:window-x="0"
     inkscape:window-y="0"
     inkscape:window-maximized="1"
     inkscape:current-layer="layer1" />
  <defs
     id="defs152144" />
  <g
     inkscape:label="Capa 1"
     inkscape:groupmode="layer"
     id="layer1"
     transform="translate(-14.276033,-121.02957)">
    <g
       id="g151739"
       transform="matrix(0.937349,0,0,-0.937349,-89.50303,251.07746)">
      <g
         id="g294"
         transform="translate(224.8828,136.6823)">
        <path
           d="M 0,0 V -15.156 H -1.879 V 0 H -5.992 V 1.778 H 4.113 V 0 Z"
           style="fill:#bf9cce;fill-opacity:1;fill-rule:nonzero;stroke:none"
           id="path296" />
      </g>
      <g
         id="g298"
         transform="translate(233.6938,129.9801)">
        <path
           d="m 0,0 c 0,-3.885 3.072,-6.981 6.88,-6.981 3.808,0 6.88,3.096 6.88,6.981 0,3.885 -3.072,6.981 -6.88,6.981 C 3.072,6.981 0,3.885 0,0 m -1.93,0 c 0,5.052 3.935,8.76 8.81,8.76 4.874,0 8.81,-3.708 8.81,-8.76 0,-5.027 -3.91,-8.759 -8.81,-8.759 -4.9,0 -8.81,3.732 -8.81,8.759"
           style="fill:#bf9cce;fill-opacity:1;fill-rule:nonzero;stroke:none"
           id="path300" />
      </g>
      <g
         id="g302"
         transform="translate(256.7476,130.6149)">
        <path
           d="M 0,0 H 1.193 C 3.529,0 4.925,1.117 4.925,3.098 4.925,4.037 4.646,4.976 3.58,5.586 2.818,6.018 1.955,6.067 1.142,6.067 H 0 Z M 0.838,7.846 C 1.98,7.846 3.681,7.769 4.951,6.906 5.94,6.245 6.804,4.95 6.804,3.147 6.804,0.559 5.103,-1.346 2.539,-1.523 L 7.921,-9.089 H 5.636 L 0.482,-1.676 H 0 V -9.089 H -1.879 V 7.846 Z"
           style="fill:#bf9cce;fill-opacity:1;fill-rule:nonzero;stroke:none"
           id="path304" />
      </g>
      <g
         id="g306"
         transform="translate(271.5239,130.6149)">
        <path
           d="M 0,0 H 1.193 C 3.529,0 4.925,1.117 4.925,3.098 4.925,4.037 4.646,4.976 3.58,5.586 2.818,6.018 1.955,6.067 1.142,6.067 H 0 Z m 0.838,7.846 c 1.142,0 2.843,-0.077 4.113,-0.94 0.99,-0.661 1.853,-1.956 1.853,-3.759 0,-2.588 -1.701,-4.493 -4.265,-4.67 L 7.921,-9.089 H 5.637 L 0.482,-1.676 H 0 V -9.089 H -1.878 V 7.846 Z"
           style="fill:#bf9cce;fill-opacity:1;fill-rule:nonzero;stroke:none"
           id="path308" />
      </g>
      <g
         id="g310"
         transform="translate(293.2065,136.6823)">
        <path
           d="m 0,0 h -6.905 v -5.026 h 6.702 V -6.804 H -6.905 V -13.38 H 0 v -1.776 H -8.784 V 1.778 H 0 Z"
           style="fill:#bf9cce;fill-opacity:1;fill-rule:nonzero;stroke:none"
           id="path312" />
      </g>
      <g
         id="g314"
         transform="translate(300.2651,123.3024)">
        <path
           d="M 0,0 H 8.988 V -1.776 H -3.148 L 6.094,13.38 h -8.049 v 1.778 H 9.242 Z"
           style="fill:#bf9cce;fill-opacity:1;fill-rule:nonzero;stroke:none"
           id="path316" />
      </g>
      <g
         id="g318"
         transform="translate(118.6475,134.818)">
        <path
           d="m 0,0 c -0.214,0.428 -0.57,0.902 -0.927,1.187 -0.308,0.238 -0.878,0.546 -1.781,0.546 -1.567,0 -2.66,-0.972 -2.66,-2.445 0,-0.618 0.167,-0.974 0.594,-1.378 0.475,-0.474 1.068,-0.736 1.662,-0.997 l 1.52,-0.665 c 0.926,-0.403 1.781,-0.831 2.446,-1.496 0.808,-0.808 1.141,-1.734 1.141,-2.874 0,-2.921 -2.162,-4.868 -5.012,-4.868 -1.044,0 -2.351,0.214 -3.443,1.282 -0.783,0.76 -1.259,1.853 -1.472,2.803 l 1.709,0.474 c 0.119,-0.831 0.499,-1.543 0.951,-2.018 0.689,-0.689 1.472,-0.879 2.279,-0.879 2.161,0 3.182,1.544 3.182,3.136 0,0.712 -0.213,1.329 -0.783,1.851 -0.451,0.428 -1.069,0.713 -1.9,1.093 l -1.425,0.665 c -0.618,0.284 -1.401,0.617 -2.114,1.306 -0.688,0.665 -1.092,1.401 -1.092,2.589 0,2.446 1.876,4.084 4.441,4.084 0.974,0 1.757,-0.19 2.541,-0.712 C 0.499,2.257 1.044,1.615 1.401,0.927 Z"
           style="fill:#bf9cce;fill-opacity:1;fill-rule:nonzero;stroke:none"
           id="path320" />
      </g>
      <g
         id="g322"
         transform="translate(143.3428,137.5065)">
        <path
           d="M 0,0 V -16.401 L 12.398,-3.54 v -12.2 h 1.764 V 0.708 L 1.764,-12.153 V 0 Z"
           style="fill:#bf9cce;fill-opacity:1;fill-rule:nonzero;stroke:none"
           id="path324" />
      </g>
      <g
         id="g326"
         transform="translate(164.2939,123.775)">
        <path
           d="m 0,0 h 1.544 c 1.258,0 2.992,0.143 4.536,1.425 1.187,0.998 2.137,2.565 2.137,4.821 0,3.8 -2.66,6.27 -6.673,6.27 H 0 Z m -1.757,14.179 h 3.23 c 1.59,0 3.847,-0.167 5.841,-1.853 1.449,-1.212 2.707,-3.23 2.707,-6.08 C 10.021,2.921 8.383,1.14 7.243,0.166 5.794,-1.068 4.274,-1.662 1.449,-1.662 h -3.206 z"
           style="fill:#bf9cce;fill-opacity:1;fill-rule:nonzero;stroke:none"
           id="path328" />
      </g>
      <g
         id="g330"
         transform="translate(181.2041,130.6149)">
        <path
           d="M 0,0 H 1.116 C 3.301,0 4.607,1.045 4.607,2.897 4.607,3.776 4.346,4.654 3.348,5.225 2.636,5.628 1.829,5.676 1.068,5.676 H 0 Z M 0.784,7.339 C 1.853,7.339 3.443,7.267 4.631,6.46 5.557,5.842 6.365,4.631 6.365,2.944 6.365,0.522 4.773,-1.259 2.375,-1.425 L 7.409,-8.502 H 5.272 L 0.451,-1.567 H 0 V -8.502 H -1.757 V 7.339 Z"
           style="fill:#bf9cce;fill-opacity:1;fill-rule:nonzero;stroke:none"
           id="path332" />
      </g>
      <g
         id="g334"
         transform="translate(203.8604,122.1129)">
        <path
           d="M 0,0 H 1.947 L -5.153,16.601 -12.444,0 h 1.947 l 1.479,3.476 H -9.03 l 3.839,8.992 3.772,-8.992 h -0.023 z"
           style="fill:#bf9cce;fill-opacity:1;fill-rule:nonzero;stroke:none"
           id="path336" />
      </g>
      <g
         id="g338"
         transform="translate(136.3638,122.1129)">
        <path
           d="M 0,0 H 1.947 L -5.154,16.601 -12.444,0 h 1.947 l 1.327,3.118 h -0.011 l 3.992,9.35 3.921,-9.35 h -0.026 z"
           style="fill:#bf9cce;fill-opacity:1;fill-rule:nonzero;stroke:none"
           id="path340" />
      </g>
    </g>
  </g>
</svg>
